<mxfile host="Electron" agent="Mozilla/5.0 (Windows NT 10.0; Win64; x64) AppleWebKit/537.36 (KHTML, like Gecko) draw.io/26.0.16 Chrome/132.0.6834.196 Electron/34.2.0 Safari/537.36" version="26.0.16">
  <diagram name="ページ1" id="8Z2VKhYiXEUIzKb9V4f3">
    <mxGraphModel dx="627" dy="565" grid="1" gridSize="10" guides="1" tooltips="1" connect="1" arrows="1" fold="1" page="1" pageScale="1" pageWidth="583" pageHeight="827" math="0" shadow="0">
      <root>
        <mxCell id="0" />
        <mxCell id="1" parent="0" />
        <mxCell id="UdpplQNyBAar7N5eLsB3-1" value="&amp;nbsp; VPS" style="rounded=0;whiteSpace=wrap;html=1;align=left;verticalAlign=top;" parent="1" vertex="1">
          <mxGeometry x="20" y="30" width="507" height="350" as="geometry" />
        </mxCell>
        <mxCell id="DWRmJ9ecip7LOmy13F98-8" style="edgeStyle=orthogonalEdgeStyle;rounded=0;orthogonalLoop=1;jettySize=auto;html=1;startArrow=classic;startFill=1;exitX=0.418;exitY=0.046;exitDx=0;exitDy=0;exitPerimeter=0;" parent="1" source="NM15qHb1s9pVgVxKMY3R-1" edge="1">
          <mxGeometry relative="1" as="geometry">
            <mxPoint x="210" y="10" as="targetPoint" />
            <Array as="points" />
          </mxGeometry>
        </mxCell>
        <mxCell id="UdpplQNyBAar7N5eLsB3-27" value="" style="rounded=1;whiteSpace=wrap;html=1;fillColor=none;" parent="1" vertex="1">
          <mxGeometry x="40" y="60" width="340" height="140" as="geometry" />
        </mxCell>
        <mxCell id="UdpplQNyBAar7N5eLsB3-11" style="edgeStyle=orthogonalEdgeStyle;rounded=0;orthogonalLoop=1;jettySize=auto;html=1;entryX=0.5;entryY=0;entryDx=0;entryDy=0;" parent="1" source="UdpplQNyBAar7N5eLsB3-3" target="UdpplQNyBAar7N5eLsB3-4" edge="1">
          <mxGeometry relative="1" as="geometry" />
        </mxCell>
        <mxCell id="UdpplQNyBAar7N5eLsB3-3" value="WordPress1 container" style="rounded=0;whiteSpace=wrap;html=1;fillColor=#dae8fc;strokeColor=#6c8ebf;" parent="1" vertex="1">
          <mxGeometry x="60" y="130" width="130" height="60" as="geometry" />
        </mxCell>
        <mxCell id="UdpplQNyBAar7N5eLsB3-4" value="Wordpress1 volume" style="rounded=0;whiteSpace=wrap;html=1;" parent="1" vertex="1">
          <mxGeometry x="60" y="220" width="130" height="60" as="geometry" />
        </mxCell>
        <mxCell id="UdpplQNyBAar7N5eLsB3-22" style="edgeStyle=orthogonalEdgeStyle;rounded=0;orthogonalLoop=1;jettySize=auto;html=1;entryX=0.5;entryY=1;entryDx=0;entryDy=0;" parent="1" source="UdpplQNyBAar7N5eLsB3-12" target="UdpplQNyBAar7N5eLsB3-4" edge="1">
          <mxGeometry relative="1" as="geometry" />
        </mxCell>
        <mxCell id="UdpplQNyBAar7N5eLsB3-26" style="edgeStyle=orthogonalEdgeStyle;rounded=0;orthogonalLoop=1;jettySize=auto;html=1;" parent="1" source="UdpplQNyBAar7N5eLsB3-12" target="UdpplQNyBAar7N5eLsB3-20" edge="1">
          <mxGeometry relative="1" as="geometry" />
        </mxCell>
        <mxCell id="UdpplQNyBAar7N5eLsB3-12" value="sshh container&lt;div&gt;(control/backup)&lt;/div&gt;" style="rounded=0;whiteSpace=wrap;html=1;fillColor=#dae8fc;strokeColor=#6c8ebf;" parent="1" vertex="1">
          <mxGeometry x="235" y="300" width="120" height="60" as="geometry" />
        </mxCell>
        <mxCell id="UdpplQNyBAar7N5eLsB3-14" value="MariaDB volume" style="rounded=0;whiteSpace=wrap;html=1;" parent="1" vertex="1">
          <mxGeometry x="390" y="220" width="120" height="60" as="geometry" />
        </mxCell>
        <mxCell id="DWRmJ9ecip7LOmy13F98-2" style="edgeStyle=orthogonalEdgeStyle;rounded=0;orthogonalLoop=1;jettySize=auto;html=1;entryX=0.5;entryY=0;entryDx=0;entryDy=0;" parent="1" source="UdpplQNyBAar7N5eLsB3-19" target="UdpplQNyBAar7N5eLsB3-20" edge="1">
          <mxGeometry relative="1" as="geometry" />
        </mxCell>
        <mxCell id="UdpplQNyBAar7N5eLsB3-19" value="WordPress2 container" style="rounded=0;whiteSpace=wrap;html=1;fillColor=#dae8fc;strokeColor=#6c8ebf;" parent="1" vertex="1">
          <mxGeometry x="230" y="130" width="130" height="60" as="geometry" />
        </mxCell>
        <mxCell id="UdpplQNyBAar7N5eLsB3-20" value="Wordpress2 volume" style="rounded=0;whiteSpace=wrap;html=1;" parent="1" vertex="1">
          <mxGeometry x="230" y="220" width="130" height="60" as="geometry" />
        </mxCell>
        <mxCell id="UdpplQNyBAar7N5eLsB3-28" value="NAS&lt;div&gt;sshh&lt;/div&gt;" style="rounded=0;whiteSpace=wrap;html=1;" parent="1" vertex="1">
          <mxGeometry x="300" y="404" width="120" height="60" as="geometry" />
        </mxCell>
        <mxCell id="DWRmJ9ecip7LOmy13F98-3" style="edgeStyle=orthogonalEdgeStyle;rounded=0;orthogonalLoop=1;jettySize=auto;html=1;entryX=0.5;entryY=0;entryDx=0;entryDy=0;" parent="1" source="UdpplQNyBAar7N5eLsB3-13" target="UdpplQNyBAar7N5eLsB3-14" edge="1">
          <mxGeometry relative="1" as="geometry" />
        </mxCell>
        <mxCell id="UdpplQNyBAar7N5eLsB3-13" value="MariaDB container" style="rounded=0;whiteSpace=wrap;html=1;fillColor=#dae8fc;strokeColor=#6c8ebf;" parent="1" vertex="1">
          <mxGeometry x="390" y="130" width="120" height="60" as="geometry" />
        </mxCell>
        <mxCell id="DWRmJ9ecip7LOmy13F98-5" value="traefik network" style="text;html=1;align=center;verticalAlign=middle;whiteSpace=wrap;rounded=0;" parent="1" vertex="1">
          <mxGeometry x="30" y="60" width="140" height="30" as="geometry" />
        </mxCell>
        <mxCell id="DWRmJ9ecip7LOmy13F98-9" value="Internet" style="text;html=1;align=center;verticalAlign=middle;whiteSpace=wrap;rounded=0;" parent="1" vertex="1">
          <mxGeometry x="200" y="10" width="80" height="20" as="geometry" />
        </mxCell>
        <mxCell id="DWRmJ9ecip7LOmy13F98-10" value="WordPress network" style="rounded=0;whiteSpace=wrap;html=1;fillColor=#dae8fc;strokeColor=#6c8ebf;" parent="1" vertex="1">
          <mxGeometry x="427" y="30" width="100" height="40" as="geometry" />
        </mxCell>
        <mxCell id="DWRmJ9ecip7LOmy13F98-14" value="" style="endArrow=none;html=1;rounded=0;startArrow=classic;startFill=1;" parent="1" edge="1">
          <mxGeometry width="50" height="50" relative="1" as="geometry">
            <mxPoint x="249.66" y="360" as="sourcePoint" />
            <mxPoint x="249.66" y="410" as="targetPoint" />
          </mxGeometry>
        </mxCell>
        <mxCell id="DWRmJ9ecip7LOmy13F98-15" value="Internet" style="text;html=1;align=center;verticalAlign=middle;whiteSpace=wrap;rounded=0;" parent="1" vertex="1">
          <mxGeometry x="225" y="410" width="50" height="30" as="geometry" />
        </mxCell>
        <mxCell id="DWRmJ9ecip7LOmy13F98-17" style="edgeStyle=orthogonalEdgeStyle;rounded=0;orthogonalLoop=1;jettySize=auto;html=1;exitX=0.9;exitY=0.972;exitDx=0;exitDy=0;exitPerimeter=0;" parent="1" source="UdpplQNyBAar7N5eLsB3-12" edge="1">
          <mxGeometry relative="1" as="geometry">
            <mxPoint x="490" y="460" as="sourcePoint" />
            <mxPoint x="343" y="400" as="targetPoint" />
          </mxGeometry>
        </mxCell>
        <mxCell id="NM15qHb1s9pVgVxKMY3R-1" value="traefik container" style="rounded=0;whiteSpace=wrap;html=1;" vertex="1" parent="1">
          <mxGeometry x="160" y="70" width="120" height="40" as="geometry" />
        </mxCell>
        <mxCell id="NM15qHb1s9pVgVxKMY3R-2" value="" style="endArrow=classic;html=1;rounded=0;exitX=0.132;exitY=0.975;exitDx=0;exitDy=0;exitPerimeter=0;" edge="1" parent="1" source="NM15qHb1s9pVgVxKMY3R-1">
          <mxGeometry width="50" height="50" relative="1" as="geometry">
            <mxPoint x="240" y="240" as="sourcePoint" />
            <mxPoint x="176" y="130" as="targetPoint" />
          </mxGeometry>
        </mxCell>
        <mxCell id="NM15qHb1s9pVgVxKMY3R-4" value="" style="endArrow=classic;html=1;rounded=0;exitX=0.75;exitY=1;exitDx=0;exitDy=0;entryX=0.159;entryY=-0.007;entryDx=0;entryDy=0;entryPerimeter=0;" edge="1" parent="1" source="NM15qHb1s9pVgVxKMY3R-1" target="UdpplQNyBAar7N5eLsB3-19">
          <mxGeometry width="50" height="50" relative="1" as="geometry">
            <mxPoint x="186" y="119" as="sourcePoint" />
            <mxPoint x="186" y="140" as="targetPoint" />
          </mxGeometry>
        </mxCell>
      </root>
    </mxGraphModel>
  </diagram>
</mxfile>
